<?xml version="1.0" encoding="UTF-8"?>
<svg width="15px" height="15px" viewBox="0 0 15 15" version="1.1" xmlns="http://www.w3.org/2000/svg" xmlns:xlink="http://www.w3.org/1999/xlink">
    <!-- Generator: Sketch 52.6 (67491) - http://www.bohemiancoding.com/sketch -->
    <title>删除 关闭 取消 无边框</title>
    <desc>Created with Sketch.</desc>
    <g id="布控" stroke="none" stroke-width="1" fill="none" fill-rule="evenodd">
        <g id="布控-核查记录-弹窗" transform="translate(-1372.000000, -198.000000)" fill="#ffffff">
            <g id="Group-18" transform="translate(510.000000, 177.000000)">
                <g id="删除-关闭-取消-无边框" transform="translate(860.000000, 18.000000)">
                    <rect id="Rectangle" opacity="0" x="0" y="0" width="20" height="20"></rect>
                    <path d="M16.075,16.4125 L10.2375,10.55 L16.025,4.8 C16.275,4.55 16.275,4.15 16.025,3.9125 C15.775,3.6625 15.375,3.6625 15.125,3.9125 L9.3375,9.65 L3.6125,3.9125 C3.3625,3.6625 2.9625,3.6625 2.725,3.9125 C2.4875,4.1625 2.475,4.5625 2.725,4.8 L8.4375,10.5375 L2.525,16.4125 C2.275,16.6625 2.275,17.0625 2.525,17.3 C2.775,17.55 3.175,17.55 3.425,17.3 L9.3375,11.4375 L15.1875,17.3 C15.4375,17.55 15.8375,17.55 16.075,17.3 C16.3125,17.0625 16.3125,16.6625 16.075,16.4125 Z" id="Path"></path>
                </g>
            </g>
        </g>
    </g>
</svg>